<?xml version="1.0" encoding="utf-8" standalone="no"?>
<!DOCTYPE svg PUBLIC "-//W3C//DTD SVG 1.1//EN"
  "http://www.w3.org/Graphics/SVG/1.1/DTD/svg11.dtd">
<svg height="183.406537pt" version="1.1" viewBox="0 0 238.965625 183.406537" width="238.965625pt" xmlns="http://www.w3.org/2000/svg" xmlns:xlink="http://www.w3.org/1999/xlink">
 <metadata>
  <rdf:RDF xmlns:cc="http://creativecommons.org/ns#" xmlns:dc="http://purl.org/dc/elements/1.1/" xmlns:rdf="http://www.w3.org/1999/02/22-rdf-syntax-ns#">
   <cc:Work>
    <dc:type rdf:resource="http://purl.org/dc/dcmitype/StillImage"/>
    <dc:date>2021-12-23T11:30:29.943372</dc:date>
    <dc:format>image/svg+xml</dc:format>
    <dc:creator>
     <cc:Agent>
      <dc:title>Matplotlib v3.4.3, https://matplotlib.org/</dc:title>
     </cc:Agent>
    </dc:creator>
   </cc:Work>
  </rdf:RDF>
 </metadata>
 <defs>
  <style type="text/css">*{stroke-linecap:butt;stroke-linejoin:round;}</style>
 </defs>
 <g id="figure_1">
  <g id="patch_1">
   <path d="M 0 183.406537 
L 238.965625 183.406537 
L 238.965625 0 
L 0 0 
z
" style="fill:none;"/>
  </g>
  <g id="axes_1">
   <g id="patch_2">
    <path d="M 30.103125 145.850287 
L 225.403125 145.850287 
L 225.403125 9.950287 
L 30.103125 9.950287 
z
" style="fill:#ffffff;"/>
   </g>
   <g id="matplotlib.axis_1">
    <g id="xtick_1">
     <g id="line2d_1">
      <path clip-path="url(#p17393585a7)" d="M 71.218914 145.850287 
L 71.218914 9.950287 
" style="fill:none;stroke:#b0b0b0;stroke-linecap:square;stroke-width:0.8;"/>
     </g>
     <g id="line2d_2">
      <defs>
       <path d="M 0 0 
L 0 3.5 
" id="mb99755f80c" style="stroke:#000000;stroke-width:0.8;"/>
      </defs>
      <g>
       <use style="stroke:#000000;stroke-width:0.8;" x="71.218914" xlink:href="#mb99755f80c" y="145.850287"/>
      </g>
     </g>
     <g id="text_1">
      <!-- 5 -->
      <g transform="translate(68.037664 160.448724)scale(0.1 -0.1)">
       <defs>
        <path d="M 691 4666 
L 3169 4666 
L 3169 4134 
L 1269 4134 
L 1269 2991 
Q 1406 3038 1543 3061 
Q 1681 3084 1819 3084 
Q 2600 3084 3056 2656 
Q 3513 2228 3513 1497 
Q 3513 744 3044 326 
Q 2575 -91 1722 -91 
Q 1428 -91 1123 -41 
Q 819 9 494 109 
L 494 744 
Q 775 591 1075 516 
Q 1375 441 1709 441 
Q 2250 441 2565 725 
Q 2881 1009 2881 1497 
Q 2881 1984 2565 2268 
Q 2250 2553 1709 2553 
Q 1456 2553 1204 2497 
Q 953 2441 691 2322 
L 691 4666 
z
" id="DejaVuSans-35" transform="scale(0.015625)"/>
       </defs>
       <use xlink:href="#DejaVuSans-35"/>
      </g>
     </g>
    </g>
    <g id="xtick_2">
     <g id="line2d_3">
      <path clip-path="url(#p17393585a7)" d="M 122.613651 145.850287 
L 122.613651 9.950287 
" style="fill:none;stroke:#b0b0b0;stroke-linecap:square;stroke-width:0.8;"/>
     </g>
     <g id="line2d_4">
      <g>
       <use style="stroke:#000000;stroke-width:0.8;" x="122.613651" xlink:href="#mb99755f80c" y="145.850287"/>
      </g>
     </g>
     <g id="text_2">
      <!-- 10 -->
      <g transform="translate(116.251151 160.448724)scale(0.1 -0.1)">
       <defs>
        <path d="M 794 531 
L 1825 531 
L 1825 4091 
L 703 3866 
L 703 4441 
L 1819 4666 
L 2450 4666 
L 2450 531 
L 3481 531 
L 3481 0 
L 794 0 
L 794 531 
z
" id="DejaVuSans-31" transform="scale(0.015625)"/>
        <path d="M 2034 4250 
Q 1547 4250 1301 3770 
Q 1056 3291 1056 2328 
Q 1056 1369 1301 889 
Q 1547 409 2034 409 
Q 2525 409 2770 889 
Q 3016 1369 3016 2328 
Q 3016 3291 2770 3770 
Q 2525 4250 2034 4250 
z
M 2034 4750 
Q 2819 4750 3233 4129 
Q 3647 3509 3647 2328 
Q 3647 1150 3233 529 
Q 2819 -91 2034 -91 
Q 1250 -91 836 529 
Q 422 1150 422 2328 
Q 422 3509 836 4129 
Q 1250 4750 2034 4750 
z
" id="DejaVuSans-30" transform="scale(0.015625)"/>
       </defs>
       <use xlink:href="#DejaVuSans-31"/>
       <use x="63.623047" xlink:href="#DejaVuSans-30"/>
      </g>
     </g>
    </g>
    <g id="xtick_3">
     <g id="line2d_5">
      <path clip-path="url(#p17393585a7)" d="M 174.008388 145.850287 
L 174.008388 9.950287 
" style="fill:none;stroke:#b0b0b0;stroke-linecap:square;stroke-width:0.8;"/>
     </g>
     <g id="line2d_6">
      <g>
       <use style="stroke:#000000;stroke-width:0.8;" x="174.008388" xlink:href="#mb99755f80c" y="145.850287"/>
      </g>
     </g>
     <g id="text_3">
      <!-- 15 -->
      <g transform="translate(167.645888 160.448724)scale(0.1 -0.1)">
       <use xlink:href="#DejaVuSans-31"/>
       <use x="63.623047" xlink:href="#DejaVuSans-35"/>
      </g>
     </g>
    </g>
    <g id="xtick_4">
     <g id="line2d_7">
      <path clip-path="url(#p17393585a7)" d="M 225.403125 145.850287 
L 225.403125 9.950287 
" style="fill:none;stroke:#b0b0b0;stroke-linecap:square;stroke-width:0.8;"/>
     </g>
     <g id="line2d_8">
      <g>
       <use style="stroke:#000000;stroke-width:0.8;" x="225.403125" xlink:href="#mb99755f80c" y="145.850287"/>
      </g>
     </g>
     <g id="text_4">
      <!-- 20 -->
      <g transform="translate(219.040625 160.448724)scale(0.1 -0.1)">
       <defs>
        <path d="M 1228 531 
L 3431 531 
L 3431 0 
L 469 0 
L 469 531 
Q 828 903 1448 1529 
Q 2069 2156 2228 2338 
Q 2531 2678 2651 2914 
Q 2772 3150 2772 3378 
Q 2772 3750 2511 3984 
Q 2250 4219 1831 4219 
Q 1534 4219 1204 4116 
Q 875 4013 500 3803 
L 500 4441 
Q 881 4594 1212 4672 
Q 1544 4750 1819 4750 
Q 2544 4750 2975 4387 
Q 3406 4025 3406 3419 
Q 3406 3131 3298 2873 
Q 3191 2616 2906 2266 
Q 2828 2175 2409 1742 
Q 1991 1309 1228 531 
z
" id="DejaVuSans-32" transform="scale(0.015625)"/>
       </defs>
       <use xlink:href="#DejaVuSans-32"/>
       <use x="63.623047" xlink:href="#DejaVuSans-30"/>
      </g>
     </g>
    </g>
    <g id="text_5">
     <!-- epoch -->
     <g transform="translate(112.525 174.126849)scale(0.1 -0.1)">
      <defs>
       <path d="M 3597 1894 
L 3597 1613 
L 953 1613 
Q 991 1019 1311 708 
Q 1631 397 2203 397 
Q 2534 397 2845 478 
Q 3156 559 3463 722 
L 3463 178 
Q 3153 47 2828 -22 
Q 2503 -91 2169 -91 
Q 1331 -91 842 396 
Q 353 884 353 1716 
Q 353 2575 817 3079 
Q 1281 3584 2069 3584 
Q 2775 3584 3186 3129 
Q 3597 2675 3597 1894 
z
M 3022 2063 
Q 3016 2534 2758 2815 
Q 2500 3097 2075 3097 
Q 1594 3097 1305 2825 
Q 1016 2553 972 2059 
L 3022 2063 
z
" id="DejaVuSans-65" transform="scale(0.015625)"/>
       <path d="M 1159 525 
L 1159 -1331 
L 581 -1331 
L 581 3500 
L 1159 3500 
L 1159 2969 
Q 1341 3281 1617 3432 
Q 1894 3584 2278 3584 
Q 2916 3584 3314 3078 
Q 3713 2572 3713 1747 
Q 3713 922 3314 415 
Q 2916 -91 2278 -91 
Q 1894 -91 1617 61 
Q 1341 213 1159 525 
z
M 3116 1747 
Q 3116 2381 2855 2742 
Q 2594 3103 2138 3103 
Q 1681 3103 1420 2742 
Q 1159 2381 1159 1747 
Q 1159 1113 1420 752 
Q 1681 391 2138 391 
Q 2594 391 2855 752 
Q 3116 1113 3116 1747 
z
" id="DejaVuSans-70" transform="scale(0.015625)"/>
       <path d="M 1959 3097 
Q 1497 3097 1228 2736 
Q 959 2375 959 1747 
Q 959 1119 1226 758 
Q 1494 397 1959 397 
Q 2419 397 2687 759 
Q 2956 1122 2956 1747 
Q 2956 2369 2687 2733 
Q 2419 3097 1959 3097 
z
M 1959 3584 
Q 2709 3584 3137 3096 
Q 3566 2609 3566 1747 
Q 3566 888 3137 398 
Q 2709 -91 1959 -91 
Q 1206 -91 779 398 
Q 353 888 353 1747 
Q 353 2609 779 3096 
Q 1206 3584 1959 3584 
z
" id="DejaVuSans-6f" transform="scale(0.015625)"/>
       <path d="M 3122 3366 
L 3122 2828 
Q 2878 2963 2633 3030 
Q 2388 3097 2138 3097 
Q 1578 3097 1268 2742 
Q 959 2388 959 1747 
Q 959 1106 1268 751 
Q 1578 397 2138 397 
Q 2388 397 2633 464 
Q 2878 531 3122 666 
L 3122 134 
Q 2881 22 2623 -34 
Q 2366 -91 2075 -91 
Q 1284 -91 818 406 
Q 353 903 353 1747 
Q 353 2603 823 3093 
Q 1294 3584 2113 3584 
Q 2378 3584 2631 3529 
Q 2884 3475 3122 3366 
z
" id="DejaVuSans-63" transform="scale(0.015625)"/>
       <path d="M 3513 2113 
L 3513 0 
L 2938 0 
L 2938 2094 
Q 2938 2591 2744 2837 
Q 2550 3084 2163 3084 
Q 1697 3084 1428 2787 
Q 1159 2491 1159 1978 
L 1159 0 
L 581 0 
L 581 4863 
L 1159 4863 
L 1159 2956 
Q 1366 3272 1645 3428 
Q 1925 3584 2291 3584 
Q 2894 3584 3203 3211 
Q 3513 2838 3513 2113 
z
" id="DejaVuSans-68" transform="scale(0.015625)"/>
      </defs>
      <use xlink:href="#DejaVuSans-65"/>
      <use x="61.523438" xlink:href="#DejaVuSans-70"/>
      <use x="125" xlink:href="#DejaVuSans-6f"/>
      <use x="186.181641" xlink:href="#DejaVuSans-63"/>
      <use x="241.162109" xlink:href="#DejaVuSans-68"/>
     </g>
    </g>
   </g>
   <g id="matplotlib.axis_2">
    <g id="ytick_1">
     <g id="line2d_9">
      <path clip-path="url(#p17393585a7)" d="M 30.103125 140.482283 
L 225.403125 140.482283 
" style="fill:none;stroke:#b0b0b0;stroke-linecap:square;stroke-width:0.8;"/>
     </g>
     <g id="line2d_10">
      <defs>
       <path d="M 0 0 
L -3.5 0 
" id="m2033b0dede" style="stroke:#000000;stroke-width:0.8;"/>
      </defs>
      <g>
       <use style="stroke:#000000;stroke-width:0.8;" x="30.103125" xlink:href="#m2033b0dede" y="140.482283"/>
      </g>
     </g>
     <g id="text_6">
      <!-- 0.0 -->
      <g transform="translate(7.2 144.281502)scale(0.1 -0.1)">
       <defs>
        <path d="M 684 794 
L 1344 794 
L 1344 0 
L 684 0 
L 684 794 
z
" id="DejaVuSans-2e" transform="scale(0.015625)"/>
       </defs>
       <use xlink:href="#DejaVuSans-30"/>
       <use x="63.623047" xlink:href="#DejaVuSans-2e"/>
       <use x="95.410156" xlink:href="#DejaVuSans-30"/>
      </g>
     </g>
    </g>
    <g id="ytick_2">
     <g id="line2d_11">
      <path clip-path="url(#p17393585a7)" d="M 30.103125 114.58567 
L 225.403125 114.58567 
" style="fill:none;stroke:#b0b0b0;stroke-linecap:square;stroke-width:0.8;"/>
     </g>
     <g id="line2d_12">
      <g>
       <use style="stroke:#000000;stroke-width:0.8;" x="30.103125" xlink:href="#m2033b0dede" y="114.58567"/>
      </g>
     </g>
     <g id="text_7">
      <!-- 0.5 -->
      <g transform="translate(7.2 118.384889)scale(0.1 -0.1)">
       <use xlink:href="#DejaVuSans-30"/>
       <use x="63.623047" xlink:href="#DejaVuSans-2e"/>
       <use x="95.410156" xlink:href="#DejaVuSans-35"/>
      </g>
     </g>
    </g>
    <g id="ytick_3">
     <g id="line2d_13">
      <path clip-path="url(#p17393585a7)" d="M 30.103125 88.689057 
L 225.403125 88.689057 
" style="fill:none;stroke:#b0b0b0;stroke-linecap:square;stroke-width:0.8;"/>
     </g>
     <g id="line2d_14">
      <g>
       <use style="stroke:#000000;stroke-width:0.8;" x="30.103125" xlink:href="#m2033b0dede" y="88.689057"/>
      </g>
     </g>
     <g id="text_8">
      <!-- 1.0 -->
      <g transform="translate(7.2 92.488276)scale(0.1 -0.1)">
       <use xlink:href="#DejaVuSans-31"/>
       <use x="63.623047" xlink:href="#DejaVuSans-2e"/>
       <use x="95.410156" xlink:href="#DejaVuSans-30"/>
      </g>
     </g>
    </g>
    <g id="ytick_4">
     <g id="line2d_15">
      <path clip-path="url(#p17393585a7)" d="M 30.103125 62.792445 
L 225.403125 62.792445 
" style="fill:none;stroke:#b0b0b0;stroke-linecap:square;stroke-width:0.8;"/>
     </g>
     <g id="line2d_16">
      <g>
       <use style="stroke:#000000;stroke-width:0.8;" x="30.103125" xlink:href="#m2033b0dede" y="62.792445"/>
      </g>
     </g>
     <g id="text_9">
      <!-- 1.5 -->
      <g transform="translate(7.2 66.591663)scale(0.1 -0.1)">
       <use xlink:href="#DejaVuSans-31"/>
       <use x="63.623047" xlink:href="#DejaVuSans-2e"/>
       <use x="95.410156" xlink:href="#DejaVuSans-35"/>
      </g>
     </g>
    </g>
    <g id="ytick_5">
     <g id="line2d_17">
      <path clip-path="url(#p17393585a7)" d="M 30.103125 36.895832 
L 225.403125 36.895832 
" style="fill:none;stroke:#b0b0b0;stroke-linecap:square;stroke-width:0.8;"/>
     </g>
     <g id="line2d_18">
      <g>
       <use style="stroke:#000000;stroke-width:0.8;" x="30.103125" xlink:href="#m2033b0dede" y="36.895832"/>
      </g>
     </g>
     <g id="text_10">
      <!-- 2.0 -->
      <g transform="translate(7.2 40.69505)scale(0.1 -0.1)">
       <use xlink:href="#DejaVuSans-32"/>
       <use x="63.623047" xlink:href="#DejaVuSans-2e"/>
       <use x="95.410156" xlink:href="#DejaVuSans-30"/>
      </g>
     </g>
    </g>
    <g id="ytick_6">
     <g id="line2d_19">
      <path clip-path="url(#p17393585a7)" d="M 30.103125 10.999219 
L 225.403125 10.999219 
" style="fill:none;stroke:#b0b0b0;stroke-linecap:square;stroke-width:0.8;"/>
     </g>
     <g id="line2d_20">
      <g>
       <use style="stroke:#000000;stroke-width:0.8;" x="30.103125" xlink:href="#m2033b0dede" y="10.999219"/>
      </g>
     </g>
     <g id="text_11">
      <!-- 2.5 -->
      <g transform="translate(7.2 14.798437)scale(0.1 -0.1)">
       <use xlink:href="#DejaVuSans-32"/>
       <use x="63.623047" xlink:href="#DejaVuSans-2e"/>
       <use x="95.410156" xlink:href="#DejaVuSans-35"/>
      </g>
     </g>
    </g>
   </g>
   <g id="line2d_21">
    <path clip-path="url(#p17393585a7)" d="M 21.659704 16.127559 
L 23.49523 21.272225 
L 25.330757 25.633553 
L 27.166283 27.629021 
L 29.001809 28.566791 
L 30.103125 28.603371 
L 31.938651 35.687703 
L 33.774178 39.705304 
L 35.609704 40.506784 
L 37.44523 42.338344 
L 39.280757 42.820735 
L 40.382072 43.422925 
L 42.217599 53.029549 
L 44.053125 53.832429 
L 45.888651 53.118524 
L 47.724178 52.522925 
L 49.559704 53.67691 
L 50.66102 53.600834 
L 52.496546 65.124645 
L 54.332072 61.635812 
L 56.167599 62.770607 
L 58.003125 63.006444 
L 59.838651 62.293992 
L 60.939967 62.315096 
L 62.775493 68.77811 
L 64.61102 68.05046 
L 66.446546 67.351092 
L 68.282072 66.597915 
L 70.117599 66.574426 
L 71.218914 66.954093 
L 73.054441 67.828831 
L 74.889967 70.193237 
L 76.725493 69.637102 
L 78.56102 69.526693 
L 80.396546 69.745654 
L 81.497862 69.557351 
L 83.333388 67.610268 
L 85.168914 69.181822 
L 87.004441 68.948339 
L 88.839967 69.588433 
L 90.675493 70.439445 
L 91.776809 70.263579 
L 93.612336 70.270337 
L 95.447862 70.607926 
L 97.283388 71.003321 
L 99.118914 69.894542 
L 100.954441 69.705131 
L 102.055757 70.385589 
L 103.891283 74.878945 
L 105.726809 70.376347 
L 107.562336 71.735957 
L 109.397862 71.060569 
L 111.233388 70.529694 
L 112.334704 70.429572 
L 114.17023 70.088498 
L 116.005757 70.951772 
L 117.841283 71.338431 
L 119.676809 71.885301 
L 121.512336 70.951469 
L 122.613651 70.526508 
L 124.449178 70.186676 
L 126.284704 69.544593 
L 128.12023 70.795225 
L 129.955757 70.437787 
L 131.791283 69.400837 
L 132.892599 69.840322 
L 134.728125 69.236171 
L 136.563651 70.858801 
L 138.399178 70.005744 
L 140.234704 70.071649 
L 142.07023 70.275077 
L 143.171546 70.75035 
L 145.007072 74.552199 
L 146.842599 70.686891 
L 148.678125 70.536158 
L 150.513651 70.979194 
L 152.349178 69.993886 
L 153.450493 70.827503 
L 155.28602 71.446174 
L 157.121546 71.836889 
L 158.957072 69.948139 
L 160.792599 70.563261 
L 162.628125 70.561229 
L 163.729441 70.152307 
L 165.564967 70.441642 
L 167.400493 68.127746 
L 169.23602 70.086016 
L 171.071546 70.833058 
L 172.907072 70.875713 
L 174.008388 70.916717 
L 175.843914 73.122796 
L 177.679441 69.688652 
L 179.514967 70.664192 
L 181.350493 70.069569 
L 183.18602 70.617909 
L 184.287336 71.352113 
L 186.122862 69.419699 
L 187.958388 71.347668 
L 189.793914 70.148521 
L 191.629441 69.590425 
L 193.464967 70.127288 
L 194.566283 70.580302 
L 196.401809 73.443656 
L 198.237336 71.732026 
L 200.072862 72.101013 
L 201.908388 71.708784 
L 203.743914 70.456216 
L 204.84523 69.783722 
L 206.680757 72.232017 
L 208.516283 71.933955 
L 210.351809 71.530711 
L 212.187336 71.561911 
L 214.022862 70.814476 
L 215.124178 70.792351 
L 216.959704 71.224737 
L 218.79523 68.930623 
L 220.630757 69.889596 
L 222.466283 70.260191 
L 224.301809 70.745591 
L 225.403125 70.990406 
" style="fill:none;stroke:#1f77b4;stroke-linecap:square;stroke-width:1.5;"/>
   </g>
   <g id="line2d_22">
    <path clip-path="url(#p17393585a7)" d="M 21.659704 135.626668 
L 23.49523 133.198861 
L 25.330757 131.202664 
L 27.166283 131.094761 
L 29.001809 130.447346 
L 30.103125 130.193004 
L 31.938651 126.886561 
L 33.774178 126.401 
L 35.609704 126.562854 
L 37.44523 125.510804 
L 39.280757 125.268023 
L 40.382072 124.932754 
L 42.217599 122.678362 
L 44.053125 122.1928 
L 45.888651 122.354654 
L 47.724178 121.95002 
L 49.559704 121.31879 
L 50.66102 121.233238 
L 52.496546 115.556793 
L 54.332072 117.337185 
L 56.167599 117.391137 
L 58.003125 117.256258 
L 59.838651 117.304815 
L 60.939967 117.013478 
L 62.775493 113.938255 
L 64.61102 116.527916 
L 66.446546 116.312111 
L 68.282072 116.770697 
L 70.117599 116.851624 
L 71.218914 116.493233 
L 73.054441 114.909378 
L 74.889967 113.938255 
L 76.725493 113.614547 
L 78.56102 113.695474 
L 80.396546 113.614547 
L 81.497862 113.602986 
L 83.333388 117.499039 
L 85.168914 115.394939 
L 87.004441 115.233086 
L 88.839967 115.233086 
L 90.675493 114.456187 
L 91.776809 114.354451 
L 93.612336 114.261963 
L 95.447862 113.938255 
L 97.283388 113.506645 
L 99.118914 114.100109 
L 100.954441 114.067738 
L 102.055757 113.718596 
L 103.891283 108.111517 
L 105.726809 110.377471 
L 107.562336 111.888106 
L 109.397862 112.724351 
L 111.233388 113.096615 
L 112.334704 113.082742 
L 114.17023 112.319717 
L 116.005757 111.834155 
L 117.841283 111.780204 
L 119.676809 111.753228 
L 121.512336 112.254975 
L 122.613651 112.562497 
L 124.449178 116.204209 
L 126.284704 116.042355 
L 128.12023 113.830352 
L 129.955757 113.776401 
L 131.791283 113.938255 
L 132.892599 113.834206 
L 134.728125 113.29084 
L 136.563651 111.996009 
L 138.399178 113.075035 
L 140.234704 113.128986 
L 142.07023 113.031873 
L 143.171546 112.909327 
L 145.007072 111.348594 
L 146.842599 114.100109 
L 148.678125 114.261963 
L 150.513651 113.128986 
L 152.349178 114.002996 
L 153.450493 113.660791 
L 155.28602 112.319717 
L 157.121546 112.967132 
L 158.957072 113.075035 
L 160.792599 113.209913 
L 162.628125 113.549806 
L 163.729441 113.834206 
L 165.564967 114.909378 
L 167.400493 116.68977 
L 169.23602 114.58567 
L 171.071546 113.938255 
L 172.907072 113.485064 
L 174.008388 113.487376 
L 175.843914 111.024886 
L 177.679441 113.29084 
L 179.514967 112.967132 
L 181.350493 113.29084 
L 183.18602 113.096615 
L 184.287336 112.562497 
L 186.122862 113.29084 
L 187.958388 113.29084 
L 189.793914 113.830352 
L 191.629441 114.019182 
L 193.464967 113.614547 
L 194.566283 113.718596 
L 196.401809 109.730055 
L 198.237336 111.834155 
L 200.072862 111.888106 
L 201.908388 112.400644 
L 203.743914 112.772907 
L 204.84523 113.024937 
L 206.680757 114.261963 
L 208.516283 114.747524 
L 210.351809 114.261963 
L 212.187336 114.34289 
L 214.022862 114.520929 
L 215.124178 114.354451 
L 216.959704 112.319717 
L 218.79523 113.938255 
L 220.630757 113.938255 
L 222.466283 113.128986 
L 224.301809 113.29084 
L 225.403125 113.140547 
" style="fill:none;stroke:#bf00bf;stroke-dasharray:5.55,2.4;stroke-dashoffset:0;stroke-width:1.5;"/>
   </g>
   <g id="line2d_23">
    <path clip-path="url(#p17393585a7)" d="M 30.103125 134.00813 
L 30.103125 139.673014 
L 30.103125 131.580322 
L 30.103125 132.389592 
L 40.382072 129.152515 
L 40.382072 121.869093 
L 40.382072 122.678362 
L 50.66102 121.059823 
L 50.66102 121.059823 
L 50.66102 129.152515 
L 50.66102 122.678362 
L 60.939967 125.106169 
L 60.939967 117.822747 
L 60.939967 121.059823 
L 71.218914 121.059823 
L 71.218914 121.059823 
L 71.218914 122.678362 
L 71.218914 118.632016 
L 71.218914 118.632016 
L 81.497862 120.250554 
L 81.497862 122.678362 
L 81.497862 120.250554 
L 91.776809 119.441285 
L 91.776809 121.059823 
L 91.776809 118.632016 
L 91.776809 119.441285 
L 102.055757 120.250554 
L 102.055757 120.250554 
L 102.055757 119.441285 
L 102.055757 121.869093 
L 102.055757 119.441285 
L 112.334704 119.441285 
L 112.334704 119.441285 
L 112.334704 118.632016 
L 112.334704 120.250554 
L 112.334704 119.441285 
L 122.613651 119.441285 
L 122.613651 119.441285 
L 122.613651 121.869093 
L 122.613651 121.059823 
L 132.892599 121.059823 
L 132.892599 121.059823 
L 132.892599 118.632016 
L 132.892599 120.250554 
L 143.171546 119.441285 
L 143.171546 121.059823 
L 143.171546 118.632016 
L 143.171546 120.250554 
L 153.450493 120.250554 
L 153.450493 120.250554 
L 153.450493 118.632016 
L 153.450493 121.059823 
L 153.450493 119.441285 
L 163.729441 119.441285 
L 163.729441 121.869093 
L 163.729441 121.059823 
L 174.008388 120.250554 
L 174.008388 121.059823 
L 174.008388 119.441285 
L 174.008388 119.441285 
L 184.287336 119.441285 
L 184.287336 120.250554 
L 184.287336 117.822747 
L 184.287336 119.441285 
L 194.566283 120.250554 
L 194.566283 122.678362 
L 194.566283 118.632016 
L 194.566283 118.632016 
L 204.84523 118.632016 
L 204.84523 118.632016 
L 204.84523 121.059823 
L 204.84523 119.441285 
L 215.124178 119.441285 
L 215.124178 119.441285 
L 215.124178 121.059823 
L 215.124178 118.632016 
L 215.124178 119.441285 
L 225.403125 119.441285 
L 225.403125 119.441285 
L 225.403125 118.632016 
L 225.403125 121.059823 
L 225.403125 120.250554 
" style="fill:none;stroke:#008000;stroke-dasharray:9.6,2.4,1.5,2.4;stroke-dashoffset:0;stroke-width:1.5;"/>
   </g>
   <g id="patch_3">
    <path d="M 30.103125 145.850287 
L 30.103125 9.950287 
" style="fill:none;stroke:#000000;stroke-linecap:square;stroke-linejoin:miter;stroke-width:0.8;"/>
   </g>
   <g id="patch_4">
    <path d="M 225.403125 145.850287 
L 225.403125 9.950287 
" style="fill:none;stroke:#000000;stroke-linecap:square;stroke-linejoin:miter;stroke-width:0.8;"/>
   </g>
   <g id="patch_5">
    <path d="M 30.103125 145.850287 
L 225.403125 145.850287 
" style="fill:none;stroke:#000000;stroke-linecap:square;stroke-linejoin:miter;stroke-width:0.8;"/>
   </g>
   <g id="patch_6">
    <path d="M 30.103125 9.950287 
L 225.403125 9.950287 
" style="fill:none;stroke:#000000;stroke-linecap:square;stroke-linejoin:miter;stroke-width:0.8;"/>
   </g>
   <g id="legend_1">
    <g id="patch_7">
     <path d="M 140.634375 61.984662 
L 218.403125 61.984662 
Q 220.403125 61.984662 220.403125 59.984662 
L 220.403125 16.950287 
Q 220.403125 14.950287 218.403125 14.950287 
L 140.634375 14.950287 
Q 138.634375 14.950287 138.634375 16.950287 
L 138.634375 59.984662 
Q 138.634375 61.984662 140.634375 61.984662 
z
" style="fill:#ffffff;opacity:0.8;stroke:#cccccc;stroke-linejoin:miter;"/>
    </g>
    <g id="line2d_24">
     <path d="M 142.634375 23.048724 
L 162.634375 23.048724 
" style="fill:none;stroke:#1f77b4;stroke-linecap:square;stroke-width:1.5;"/>
    </g>
    <g id="line2d_25"/>
    <g id="text_12">
     <!-- train loss -->
     <g transform="translate(170.634375 26.548724)scale(0.1 -0.1)">
      <defs>
       <path d="M 1172 4494 
L 1172 3500 
L 2356 3500 
L 2356 3053 
L 1172 3053 
L 1172 1153 
Q 1172 725 1289 603 
Q 1406 481 1766 481 
L 2356 481 
L 2356 0 
L 1766 0 
Q 1100 0 847 248 
Q 594 497 594 1153 
L 594 3053 
L 172 3053 
L 172 3500 
L 594 3500 
L 594 4494 
L 1172 4494 
z
" id="DejaVuSans-74" transform="scale(0.015625)"/>
       <path d="M 2631 2963 
Q 2534 3019 2420 3045 
Q 2306 3072 2169 3072 
Q 1681 3072 1420 2755 
Q 1159 2438 1159 1844 
L 1159 0 
L 581 0 
L 581 3500 
L 1159 3500 
L 1159 2956 
Q 1341 3275 1631 3429 
Q 1922 3584 2338 3584 
Q 2397 3584 2469 3576 
Q 2541 3569 2628 3553 
L 2631 2963 
z
" id="DejaVuSans-72" transform="scale(0.015625)"/>
       <path d="M 2194 1759 
Q 1497 1759 1228 1600 
Q 959 1441 959 1056 
Q 959 750 1161 570 
Q 1363 391 1709 391 
Q 2188 391 2477 730 
Q 2766 1069 2766 1631 
L 2766 1759 
L 2194 1759 
z
M 3341 1997 
L 3341 0 
L 2766 0 
L 2766 531 
Q 2569 213 2275 61 
Q 1981 -91 1556 -91 
Q 1019 -91 701 211 
Q 384 513 384 1019 
Q 384 1609 779 1909 
Q 1175 2209 1959 2209 
L 2766 2209 
L 2766 2266 
Q 2766 2663 2505 2880 
Q 2244 3097 1772 3097 
Q 1472 3097 1187 3025 
Q 903 2953 641 2809 
L 641 3341 
Q 956 3463 1253 3523 
Q 1550 3584 1831 3584 
Q 2591 3584 2966 3190 
Q 3341 2797 3341 1997 
z
" id="DejaVuSans-61" transform="scale(0.015625)"/>
       <path d="M 603 3500 
L 1178 3500 
L 1178 0 
L 603 0 
L 603 3500 
z
M 603 4863 
L 1178 4863 
L 1178 4134 
L 603 4134 
L 603 4863 
z
" id="DejaVuSans-69" transform="scale(0.015625)"/>
       <path d="M 3513 2113 
L 3513 0 
L 2938 0 
L 2938 2094 
Q 2938 2591 2744 2837 
Q 2550 3084 2163 3084 
Q 1697 3084 1428 2787 
Q 1159 2491 1159 1978 
L 1159 0 
L 581 0 
L 581 3500 
L 1159 3500 
L 1159 2956 
Q 1366 3272 1645 3428 
Q 1925 3584 2291 3584 
Q 2894 3584 3203 3211 
Q 3513 2838 3513 2113 
z
" id="DejaVuSans-6e" transform="scale(0.015625)"/>
       <path id="DejaVuSans-20" transform="scale(0.015625)"/>
       <path d="M 603 4863 
L 1178 4863 
L 1178 0 
L 603 0 
L 603 4863 
z
" id="DejaVuSans-6c" transform="scale(0.015625)"/>
       <path d="M 2834 3397 
L 2834 2853 
Q 2591 2978 2328 3040 
Q 2066 3103 1784 3103 
Q 1356 3103 1142 2972 
Q 928 2841 928 2578 
Q 928 2378 1081 2264 
Q 1234 2150 1697 2047 
L 1894 2003 
Q 2506 1872 2764 1633 
Q 3022 1394 3022 966 
Q 3022 478 2636 193 
Q 2250 -91 1575 -91 
Q 1294 -91 989 -36 
Q 684 19 347 128 
L 347 722 
Q 666 556 975 473 
Q 1284 391 1588 391 
Q 1994 391 2212 530 
Q 2431 669 2431 922 
Q 2431 1156 2273 1281 
Q 2116 1406 1581 1522 
L 1381 1569 
Q 847 1681 609 1914 
Q 372 2147 372 2553 
Q 372 3047 722 3315 
Q 1072 3584 1716 3584 
Q 2034 3584 2315 3537 
Q 2597 3491 2834 3397 
z
" id="DejaVuSans-73" transform="scale(0.015625)"/>
      </defs>
      <use xlink:href="#DejaVuSans-74"/>
      <use x="39.208984" xlink:href="#DejaVuSans-72"/>
      <use x="80.322266" xlink:href="#DejaVuSans-61"/>
      <use x="141.601562" xlink:href="#DejaVuSans-69"/>
      <use x="169.384766" xlink:href="#DejaVuSans-6e"/>
      <use x="232.763672" xlink:href="#DejaVuSans-20"/>
      <use x="264.550781" xlink:href="#DejaVuSans-6c"/>
      <use x="292.333984" xlink:href="#DejaVuSans-6f"/>
      <use x="353.515625" xlink:href="#DejaVuSans-73"/>
      <use x="405.615234" xlink:href="#DejaVuSans-73"/>
     </g>
    </g>
    <g id="line2d_26">
     <path d="M 142.634375 37.726849 
L 162.634375 37.726849 
" style="fill:none;stroke:#bf00bf;stroke-dasharray:5.55,2.4;stroke-dashoffset:0;stroke-width:1.5;"/>
    </g>
    <g id="line2d_27"/>
    <g id="text_13">
     <!-- train acc -->
     <g transform="translate(170.634375 41.226849)scale(0.1 -0.1)">
      <use xlink:href="#DejaVuSans-74"/>
      <use x="39.208984" xlink:href="#DejaVuSans-72"/>
      <use x="80.322266" xlink:href="#DejaVuSans-61"/>
      <use x="141.601562" xlink:href="#DejaVuSans-69"/>
      <use x="169.384766" xlink:href="#DejaVuSans-6e"/>
      <use x="232.763672" xlink:href="#DejaVuSans-20"/>
      <use x="264.550781" xlink:href="#DejaVuSans-61"/>
      <use x="325.830078" xlink:href="#DejaVuSans-63"/>
      <use x="380.810547" xlink:href="#DejaVuSans-63"/>
     </g>
    </g>
    <g id="line2d_28">
     <path d="M 142.634375 52.404974 
L 162.634375 52.404974 
" style="fill:none;stroke:#008000;stroke-dasharray:9.6,2.4,1.5,2.4;stroke-dashoffset:0;stroke-width:1.5;"/>
    </g>
    <g id="line2d_29"/>
    <g id="text_14">
     <!-- valid acc -->
     <g transform="translate(170.634375 55.904974)scale(0.1 -0.1)">
      <defs>
       <path d="M 191 3500 
L 800 3500 
L 1894 563 
L 2988 3500 
L 3597 3500 
L 2284 0 
L 1503 0 
L 191 3500 
z
" id="DejaVuSans-76" transform="scale(0.015625)"/>
       <path d="M 2906 2969 
L 2906 4863 
L 3481 4863 
L 3481 0 
L 2906 0 
L 2906 525 
Q 2725 213 2448 61 
Q 2172 -91 1784 -91 
Q 1150 -91 751 415 
Q 353 922 353 1747 
Q 353 2572 751 3078 
Q 1150 3584 1784 3584 
Q 2172 3584 2448 3432 
Q 2725 3281 2906 2969 
z
M 947 1747 
Q 947 1113 1208 752 
Q 1469 391 1925 391 
Q 2381 391 2643 752 
Q 2906 1113 2906 1747 
Q 2906 2381 2643 2742 
Q 2381 3103 1925 3103 
Q 1469 3103 1208 2742 
Q 947 2381 947 1747 
z
" id="DejaVuSans-64" transform="scale(0.015625)"/>
      </defs>
      <use xlink:href="#DejaVuSans-76"/>
      <use x="59.179688" xlink:href="#DejaVuSans-61"/>
      <use x="120.458984" xlink:href="#DejaVuSans-6c"/>
      <use x="148.242188" xlink:href="#DejaVuSans-69"/>
      <use x="176.025391" xlink:href="#DejaVuSans-64"/>
      <use x="239.501953" xlink:href="#DejaVuSans-20"/>
      <use x="271.289062" xlink:href="#DejaVuSans-61"/>
      <use x="332.568359" xlink:href="#DejaVuSans-63"/>
      <use x="387.548828" xlink:href="#DejaVuSans-63"/>
     </g>
    </g>
   </g>
  </g>
 </g>
 <defs>
  <clipPath id="p17393585a7">
   <rect height="135.9" width="195.3" x="30.103125" y="9.950287"/>
  </clipPath>
 </defs>
</svg>
